<?xml version="1.0" encoding="UTF-8"?>
<!DOCTYPE svg PUBLIC "-//W3C//DTD SVG 1.1//EN" "http://www.w3.org/Graphics/SVG/1.1/DTD/svg11.dtd">
<!-- Creator: CorelDRAW -->
<svg xmlns="http://www.w3.org/2000/svg" xml:space="preserve" width="6.82666in" height="6.82666in" style="shape-rendering:geometricPrecision; text-rendering:geometricPrecision; image-rendering:optimizeQuality; fill-rule:evenodd; clip-rule:evenodd"
viewBox="0 0 6.82666 6.82666"
 xmlns:xlink="http://www.w3.org/1999/xlink">
 <defs>
  <style type="text/css">
   <![CDATA[
    .fil7 {fill:none}
    .fil5 {fill:#2A2A2A}
    .fil3 {fill:#3C3C3C}
    .fil0 {fill:#7E7E7E}
    .fil1 {fill:#9D9D9D}
    .fil6 {fill:#2A2A2A;fill-rule:nonzero}
    .fil2 {fill:#9D9D9D;fill-rule:nonzero}
    .fil4 {fill:#AEAEAF;fill-rule:nonzero}
   ]]>
  </style>
 </defs>
 <g id="Layer_x0020_1">
  <metadata id="CorelCorpID_0Corel-Layer"/>
  <g id="_520369864">
   <path id="_520370488" class="fil0" d="M2.52149 2.0839c0.611252,0 1.10677,0.49552 1.10677,1.10677 0,0.611252 -0.49552,1.10677 -1.10677,1.10677 -0.611252,0 -1.10677,-0.49552 -1.10677,-1.10677 0,-0.611252 0.49552,-1.10677 1.10677,-1.10677zm0.271161 1.37793c0.0693898,-0.0693858 0.112311,-0.16526 0.112311,-0.271157 0,-0.105898 -0.0429252,-0.201776 -0.112311,-0.271161 -0.0693898,-0.0693898 -0.165264,-0.112311 -0.271161,-0.112311 -0.105898,0 -0.201776,0.0429213 -0.271161,0.112311 -0.0693898,0.0693858 -0.112311,0.165264 -0.112311,0.271161 0,0.105898 0.0429213,0.201772 0.112311,0.271157 0.0693858,0.0693898 0.165264,0.112311 0.271161,0.112311 0.105898,0 0.201776,-0.0429213 0.271161,-0.112311z"/>
   <path id="_520370440" class="fil1" d="M2.81587 2.47985c0.093378,0.0386732 0.177925,0.0958701 0.24924,0.167185 0.071315,0.071315 0.128512,0.155866 0.167185,0.249244 0.0373465,0.0901693 0.0579606,0.189575 0.0579606,0.294386 0,0.212319 -0.0860472,0.404528 -0.225146,0.543626 -0.071315,0.071315 -0.15587,0.128512 -0.249244,0.167189 -0.0901654,0.0373425 -0.189571,0.0579567 -0.294382,0.0579567 -0.104811,0 -0.204217,-0.0206142 -0.294382,-0.0579606 -0.093378,-0.0386732 -0.177929,-0.0958701 -0.249244,-0.167185 -0.071315,-0.071315 -0.128512,-0.15587 -0.167189,-0.249244 -0.0373425,-0.0901654 -0.0579567,-0.189571 -0.0579567,-0.294382 0,-0.104811 0.0206142,-0.204217 0.0579606,-0.294386 0.0386732,-0.093378 0.0958701,-0.177929 0.167185,-0.249244 0.071315,-0.071315 0.155866,-0.128516 0.24924,-0.167185 0.0901693,-0.0373425 0.189575,-0.0579567 0.294386,-0.0579567 0.104811,0 0.204217,0.0206142 0.294386,0.0579567zm-0.0232244 0.439654c-0.0693898,-0.0693898 -0.165264,-0.112311 -0.271161,-0.112311 -0.105898,0 -0.201776,0.0429213 -0.271161,0.112311 -0.0693898,0.0693858 -0.112311,0.165264 -0.112311,0.271161 0,0.105898 0.0429213,0.201772 0.112311,0.271157 0.0693858,0.0693898 0.165264,0.112311 0.271161,0.112311 0.105898,0 0.201776,-0.0429213 0.271161,-0.112311 0.0693898,-0.0693858 0.112311,-0.16526 0.112311,-0.271157 0,-0.105898 -0.0429252,-0.201776 -0.112311,-0.271161z"/>
   <path id="_520370200" class="fil2" d="M2.2038 4.80887c0.00330709,0.021374 0.0127756,0.0402559 0.026311,0.0551457 0.00476378,-0.106965 0.0324134,-0.204051 0.0959921,-0.293843 0.00525197,-0.00741732 0.0106772,-0.0146772 0.016248,-0.0217992 0.00951181,-0.0131772 0.0195866,-0.0259961 0.0302126,-0.0384331l0.00191732 0.000511811c0.0479724,-0.0526417 0.103406,-0.0983386 0.157575,-0.144575 0.091437,-0.0780433 0.182744,-0.156217 0.273402,-0.235094 -0.0901693,0.027311 -0.18552,0.042 -0.283969,0.042 -0.132358,0 -0.259118,-0.0265394 -0.375217,-0.0746299 -0.120874,-0.050063 -0.22915,-0.122925 -0.319244,-0.21302 -0.0900945,-0.0900945 -0.162957,-0.198366 -0.213024,-0.319244 -0.0480827,-0.116094 -0.074626,-0.242858 -0.074626,-0.375217 0,-0.132358 0.0265394,-0.259118 0.0746299,-0.37522 0.050063,-0.120874 0.122925,-0.22915 0.21302,-0.319244 0.0900945,-0.0900945 0.198362,-0.162957 0.31924,-0.21302 0.116102,-0.0480866 0.242866,-0.074626 0.37522,-0.074626 0.132354,0 0.259118,0.0265394 0.37522,0.074626 0.120874,0.050063 0.229146,0.122925 0.31924,0.21302 0.0900945,0.0900945 0.162957,0.19837 0.21302,0.319244 0.0480906,0.116102 0.0746299,0.242862 0.0746299,0.37522 0,0.125142 -0.0234252,0.244811 -0.0660945,0.354878 0.112126,-0.113173 0.220913,-0.230307 0.322358,-0.352587 0.0384016,-0.0462874 0.0766457,-0.0942913 0.113535,-0.143724l-3.93701e-006 -6.29921e-005c0.0144961,-0.0194134 0.0288268,-0.0390984 0.0429055,-0.0590276l0.0021063 -0.00299213 0.00157087 -0.00222835 0.000535433 -0.00076378c0.0294882,-0.0420669 0.0576654,-0.0850433 0.0838465,-0.128752l-0.135614 -0.0231417c-0.0160118,-0.0604016 -0.0359016,-0.119035 -0.0593858,-0.175614 -0.0237717,-0.0572756 -0.0511614,-0.112512 -0.081874,-0.165402l0.156866 -0.214307c0.00156693,-0.00186614 0.00308661,-0.00379528 0.00454331,-0.00579528 0.0347008,-0.0476024 0.0242402,-0.114331 -0.0233622,-0.149031l-0.0628346 0.0861969 0.0625 -0.0858346c-0.00687795,-0.00501575 -0.017937,-0.0136063 -0.0331772,-0.0257795 -0.0130787,-0.0104488 -0.0257992,-0.0209606 -0.0381102,-0.0314921 -0.0104291,-0.00892126 -0.0215236,-0.0188504 -0.033248,-0.0297402 -0.00837402,-0.00777953 -0.0198189,-0.0189252 -0.0342913,-0.0333976 -0.0144921,-0.0144921 -0.0263898,-0.0267953 -0.0356772,-0.0368976 -0.0143898,-0.0156535 -0.0255079,-0.0281299 -0.0333071,-0.0373898 -0.00937008,-0.011126 -0.0200394,-0.0244134 -0.0319961,-0.0398701 -0.00808268,-0.0104449 -0.0166654,-0.0220472 -0.0257283,-0.0347677 -0.00112205,-0.00180315 -0.00229921,-0.00358661 -0.00354331,-0.00534252 -0.0340512,-0.0480669 -0.100634,-0.0594291 -0.148701,-0.025378l0.000314961 0.000440945 -0.227886 0.161449c-0.0530945,-0.0307953 -0.1085,-0.0582283 -0.165913,-0.0819921 -0.056315,-0.023311 -0.114425,-0.0430354 -0.174035,-0.058878l-0.0462165 -0.270835c-0.000224409,-0.00190157 -0.000496063,-0.00380709 -0.000826772,-0.00571654 -0.0100079,-0.0580512 -0.065189,-0.0969961 -0.12324,-0.0869882l2.3622e-005 0.000145669c-0.0198937,0.00342913 -0.0361339,0.00594488 -0.0487047,0.00754724 -0.0111063,0.00141732 -0.0279803,0.00309843 -0.0506339,0.0050315 -0.0209685,0.0017874 -0.0377323,0.00295669 -0.0501299,0.00347244 -0.0117598,0.000492126 -0.0289567,0.000740157 -0.0515591,0.000740157 -0.0227913,0 -0.0387244,-0.000173228 -0.0479252,-0.000507874 -0.0115236,-0.00042126 -0.0264685,-0.00135039 -0.044811,-0.00277559 -0.0187913,-0.00146457 -0.035252,-0.00298819 -0.0493228,-0.00455906 -0.0133346,-0.00148819 -0.0243465,-0.00283858 -0.0329843,-0.0040315 -0.00277165,-0.00065748 -0.00559055,-0.0012126 -0.00845276,-0.00165748 -0.0582165,-0.00900787 -0.11272,0.0308819 -0.121728,0.0890984l0.000413386 6.29921e-005 -0.0419843 0.27128c-0.0597992,0.0159094 -0.117866,0.0356299 -0.173913,0.0588701 -0.0574803,0.0238346 -0.112921,0.0513268 -0.166028,0.0821732l-0.219717 -0.155665c-0.00273622,-0.00238583 -0.00562205,-0.00465354 -0.00865354,-0.00679528 -0.0481181,-0.0339843 -0.114681,-0.0225236 -0.148665,0.0255945l4.72441e-005 0.000283465c-0.0103622,0.0146732 -0.020126,0.0279331 -0.029248,0.0397205 -0.0119409,0.015437 -0.0226142,0.0287402 -0.0319764,0.0398504 -0.00780315,0.00925984 -0.0189016,0.0217205 -0.0333268,0.0374094 -0.00927953,0.0100906 -0.0211693,0.0223898 -0.0356575,0.036878 -0.0144764,0.0144764 -0.0259213,0.025622 -0.0342992,0.0334055 -0.0117165,0.0108858 -0.0228071,0.0208031 -0.0332441,0.0297323 -0.010815,0.00925197 -0.0219409,0.0184843 -0.0333465,0.0276693 -0.00172835,0.00122047 -0.00343701,0.00249606 -0.00511024,0.00383465l0.000330709 0.000417323c-0.00859449,0.00686614 -0.0170827,0.0134252 -0.0254528,0.0196693 -0.0027874,0.00167323 -0.00552756,0.00348031 -0.00820472,0.00544094 -0.0475354,0.0347913 -0.0578661,0.101539 -0.0230748,0.149075l0.000240157 -8.26772e-005 0.16226 0.221685c-0.0305787,0.0527835 -0.0578346,0.107862 -0.0814803,0.164933 -0.023378,0.0564291 -0.0431457,0.114661 -0.0590276,0.174409l-0.270756 0.0462047c-0.00191732,0.000224409 -0.00384252,0.0005 -0.00576772,0.000830709 -0.0580551,0.00999213 -0.0970157,0.0651654 -0.0870236,0.12322l0.000149606 -2.75591e-005c0.00342913,0.0199488 0.00595276,0.0362047 0.00755118,0.048748 0.00140945,0.0110827 0.00309055,0.027937 0.00502756,0.050622 0.00179134,0.0209606 0.00295276,0.0376693 0.00347244,0.0500984 0.000492126,0.0117677 0.000740157,0.0289764 0.000740157,0.0515906 0,0.0227362 -0.000169291,0.0387598 -0.000507874,0.0479646 -0.00042126,0.0115118 -0.00135039,0.0264409 -0.00277559,0.0447717 -0.00146063,0.0187874 -0.00298425,0.0352244 -0.00455118,0.0492835 -0.00149213,0.0133661 -0.00284646,0.0243819 -0.00403937,0.0330236 -0.00065748,0.00277165 -0.0012126,0.00559055 -0.00165748,0.00845276 -0.00900787,0.0582165 0.0308819,0.11272 0.0890984,0.121728l6.29921e-005 -0.000413386 0.271319 0.0419921c0.0157795,0.0591496 0.0353819,0.116819 0.0585157,0.17272 0.0237008,0.0572598 0.0510551,0.112535 0.0817559,0.16552l-0.156862 0.221409c-0.00238583,0.00273622 -0.00465354,0.00562205 -0.00679528,0.00865354 -0.0339843,0.0481181 -0.0225236,0.114681 0.0255945,0.148665l0.0615354 -0.0871299 -0.061252 0.0870827c0.0146732,0.0103622 0.0279331,0.020126 0.0397205,0.029248 0.015437,0.0119409 0.0287402,0.0226142 0.0398504,0.0319764 0.0257402,0.0216811 0.0504882,0.045189 0.0742835,0.0689843 0.0144449,0.0144449 0.0256063,0.0259016 0.0333858,0.0342795 0.0108937,0.0117244 0.0208228,0.0228228 0.029752,0.0332638 0.00925591,0.0108228 0.0184803,0.0219331 0.0276693,0.0333425 0.00122441,0.00173228 0.0025,0.00344094 0.00384252,0.00512205l0.000417323 -0.000330709c0.00687402,0.00859843 0.013437,0.0170906 0.0196772,0.0254606 0.00166929,0.00278346 0.00347638,0.00551969 0.00542913,0.00818898 0.0347913,0.0475354 0.101539,0.0578661 0.149075,0.0230748l-0.063 -0.0860748 0.0629173 0.0858346 0.22235 -0.162748c0.0527835,0.030622 0.10789,0.0579409 0.165024,0.0816535 0.0561654,0.023311 0.114362,0.0430827 0.174315,0.0590354l0.0419882 0.271283z"/>
   <path id="_520370632" class="fil3" d="M4.76341 2.22305l0.0706969 0.498142 0.49815 0.0707047 0.493768 -0.492535c0.0456417,-0.0455118 0.10924,-0.060937 0.160343,-0.00970866 0.0238543,0.0239134 0.0339961,0.0563268 0.0304488,0.0874685 -0.00317717,0.0386457 -0.00472441,0.072315 -0.00635827,0.10802 -0.00991732,0.216311 -0.0226614,0.494142 -0.204323,0.675795 -0.239,0.239 -0.439366,0.25411 -0.636465,0.268961 -0.110193,0.00830315 -0.21915,0.0165157 -0.327024,0.0783071 -0.355209,0.203433 -0.662315,0.446807 -0.949035,0.727173 -0.299882,0.293252 -0.589815,0.730339 -0.846075,0.971661 -0.0954055,0.0941811 -0.220413,0.141283 -0.345346,0.141283 -0.125921,0 -0.251945,-0.0478543 -0.347634,-0.143543 -0.0956929,-0.0956929 -0.143543,-0.221713 -0.143543,-0.347634 0,-0.234827 0.115335,-0.323819 0.265291,-0.451811 0.49578,-0.423157 1.27688,-1.08984 1.55869,-1.65328 0.0663189,-0.132587 0.0705039,-0.0757402 0.0873307,-0.365654 0.0114213,-0.196815 0.0225079,-0.387701 0.272043,-0.637236 0.15213,-0.15213 0.439213,-0.184335 0.658559,-0.201185 0.0467283,-0.00358661 0.14128,-0.0174094 0.178146,-0.00212598 0.0356929,0.0147874 0.0620827,0.0485118 0.0655394,0.0896614 0.00297244,0.0353937 -0.0116929,0.0681969 -0.0366772,0.089752l-0.49652 0.497783zm-2.1794 2.47885c0.0743937,-0.0743937 0.195004,-0.0743937 0.26939,0 0.0743937,0.0743858 0.0743937,0.194996 0,0.26939 -0.0743858,0.0743858 -0.194996,0.0743858 -0.26939,0 -0.0743858,-0.0743937 -0.0743858,-0.195004 0,-0.26939z"/>
   <path id="_520369528" class="fil4" d="M2.52149 2.73736c0.125169,0 0.2385,0.0507441 0.320531,0.132776 0.0820315,0.0820315 0.132776,0.195358 0.132776,0.320531 0,0.125169 -0.0507441,0.2385 -0.132776,0.320531 -0.0820315,0.0820315 -0.195362,0.132776 -0.320531,0.132776 -0.125173,0 -0.2385,-0.0507441 -0.320531,-0.132776 -0.0820315,-0.0820315 -0.132776,-0.195362 -0.132776,-0.320531 0,-0.125173 0.0507441,-0.2385 0.132776,-0.320531 0.0820315,-0.0820315 0.195358,-0.132776 0.320531,-0.132776zm0.270744 0.182563c-0.0692835,-0.0692835 -0.165012,-0.112142 -0.270744,-0.112142 -0.105736,0 -0.201461,0.0428583 -0.270744,0.112142 -0.0692835,0.0692835 -0.112142,0.165008 -0.112142,0.270744 0,0.105732 0.0428583,0.201461 0.112142,0.270744 0.0692835,0.0692835 0.165008,0.112142 0.270744,0.112142 0.105732,0 0.201461,-0.0428583 0.270744,-0.112142 0.0692835,-0.0692835 0.112142,-0.165012 0.112142,-0.270744 0,-0.105736 -0.0428583,-0.201461 -0.112142,-0.270744z"/>
   <path id="_520369408" class="fil5" d="M4.67507 2.19362l0.0853346 0.601276 0.601283 0.0853425 0.606728 -0.605583c-0.0474409,-0.032315 -0.101961,-0.0156102 -0.14239,0.0247047l-0.493768 0.492535 -0.49815 -0.0707047 -0.0706969 -0.498142 0.49652 -0.497783c0.0249843,-0.0215551 0.0396496,-0.0543583 0.0366772,-0.089752 -0.00129528,-0.0154291 -0.0058189,-0.0298189 -0.0128425,-0.0425512l-0.608697 0.600657z"/>
   <path id="_520369480" class="fil6" d="M4.40673 3.28205c0.0429488,-0.0429488 0.0429488,-0.112594 0,-0.155543 -0.0429488,-0.0429488 -0.112594,-0.0429488 -0.155543,0l-1.25781 1.25781c-0.0429488,0.0429488 -0.0429488,0.112594 0,0.155543 0.0429488,0.0429488 0.112594,0.0429488 0.155543,0l1.25781 -1.25781z"/>
  </g>
  <path class="fil6" d="M2.71572 4.60294c0.0645669,0 0.123035,0.0261811 0.165354,0.0684961 0.042315,0.0423189 0.0684961,0.100787 0.0684961,0.165354 0,0.0645709 -0.0261811,0.123035 -0.0684961,0.165354 -0.0423189,0.0423189 -0.100787,0.0684961 -0.165354,0.0684961 -0.0645709,0 -0.123035,-0.0261772 -0.165354,-0.0684961 -0.0423189,-0.0423189 -0.0684961,-0.100783 -0.0684961,-0.165354 0,-0.0645669 0.0261772,-0.123035 0.0684961,-0.165354 0.0423189,-0.042315 0.100783,-0.0684961 0.165354,-0.0684961zm0.11822 0.11563c-0.030248,-0.030248 -0.0720512,-0.0489606 -0.11822,-0.0489606 -0.0461732,0 -0.0879724,0.0187126 -0.11822,0.0489606 -0.030248,0.030248 -0.0489606,0.0720512 -0.0489606,0.11822 0,0.0461732 0.0187126,0.0879724 0.0489606,0.11822 0.030248,0.030248 0.0720472,0.0489606 0.11822,0.0489606 0.0461693,0 0.0879724,-0.0187126 0.11822,-0.0489606 0.030248,-0.030248 0.0489606,-0.0720472 0.0489606,-0.11822 0,-0.0461693 -0.0187126,-0.0879724 -0.0489606,-0.11822z"/>
 </g>
 <rect class="fil7" width="6.82666" height="6.82666"/>
</svg>
